<?xml version="1.0" encoding="UTF-8"?>
<svg width="374px" height="99px" viewBox="0 0 374 99" version="1.1" xmlns="http://www.w3.org/2000/svg" xmlns:xlink="http://www.w3.org/1999/xlink">
    <!-- Generator: Sketch 45.2 (43514) - http://www.bohemiancoding.com/sketch -->
    <title>logo</title>
    <desc>Created with Sketch.</desc>
    <defs></defs>
    <g id="Page-1" stroke="none" stroke-width="1" fill="none" fill-rule="evenodd">
        <g id="logo">
            <text id="Oznámkuj" font-family="Raleway-Medium, Raleway" font-size="64" font-weight="400" letter-spacing="1.22000003" fill="#000000">
                <tspan x="69" y="63">Oznámkuj</tspan>
            </text>
            <g id="notepad">
                <rect id="Rectangle" fill="#FFFFFF" x="361" y="12" width="13" height="14"></rect>
                <circle id="Oval-2" fill="#8971D0" cx="367.5" cy="16.5" r="4.5"></circle>
                <path d="M42.6569987,2.33736979 L35.6448893,2.33736979 L35.6448893,1.1686849 C35.6448893,0.522402148 35.1224872,0 34.4762044,0 L23.9580404,0 C23.3117576,0 22.7893555,0.522402148 22.7893555,1.1686849 L22.7893555,2.33736979 L15.7772461,2.33736979 L0.584342448,2.33736979 L0.584342448,70.1210937 L57.8499023,70.1210937 L57.8499023,2.33736979 L42.6569987,2.33736979 Z M55.5125326,45.0948754 L54.3438477,46.2635603 L54.3438477,5.84342448 L43.8256836,5.84342448 L43.8256836,4.67473958 L55.5125326,4.67473958 L55.5125326,45.0948754 Z M36.3297387,64.2776693 L6.42776693,64.2776693 L6.42776693,8.18079427 L14.6085612,8.18079427 L14.6085612,10.5181641 L14.6085612,11.686849 L15.7772461,11.686849 L42.6569987,11.686849 L43.8256836,11.686849 L43.8256836,10.5181641 L43.8256836,8.18079427 L52.0064779,8.18079427 L52.0064779,48.6009301 L36.3297387,64.2776693 Z M52.0064779,51.905971 L52.0064779,64.2776693 L39.6347796,64.2776693 L52.0064779,51.905971 Z M33.3075195,2.33736979 L33.3075195,3.50605469 L33.3075195,5.84342448 L25.1267253,5.84342448 L25.1267253,3.50605469 L25.1267253,2.33736979 L33.3075195,2.33736979 Z M22.7893555,4.67473958 L22.7893555,7.01210937 L22.7893555,8.18079427 L23.9580404,8.18079427 L34.4762044,8.18079427 L35.6448893,8.18079427 L35.6448893,7.01210937 L35.6448893,4.67473958 L41.4883138,4.67473958 L41.4883138,5.84342448 L41.4883138,9.34947917 L16.945931,9.34947917 L16.945931,5.84342448 L16.945931,4.67473958 L22.7893555,4.67473958 Z M2.92171224,4.67473958 L14.6085612,4.67473958 L14.6085612,5.84342448 L4.09039714,5.84342448 L4.09039714,66.6150391 L33.9923689,66.6150391 L32.823684,67.783724 L2.92171224,67.783724 L2.92171224,4.67473958 Z M36.1287249,67.783724 L37.2974098,66.6150391 L54.3438477,66.6150391 L54.3438477,49.5686012 L55.5125326,48.3999163 L55.5125326,67.783724 L36.1287249,67.783724 Z" id="Shape" fill="#000000" fill-rule="nonzero"></path>
                <text id="3-" font-family="Raleway-Medium, Raleway" font-size="36" font-weight="400" letter-spacing="0.686250031" fill="#000000">
                    <tspan x="12" y="45">3-</tspan>
                </text>
            </g>
            <path d="M4.5,92.5 L95.5,71.5" id="Line-2" stroke="#D0021B" stroke-linecap="square"></path>
            <path d="M8.5,98.5 L99.5,77.5" id="Line-2" stroke="#D0021B" stroke-linecap="square"></path>
        </g>
    </g>
</svg>